<svg
  width="300"
  height="360"
  viewBox="0 0 60 72"
  fill="none"
  xmlns="http://www.w3.org/2000/svg"
>
  <path
    d="
      M30 0.267334C29.7835 0.310624 0 17.4968 0 17.4968V54.1634L30 71.6526L60
      54.1634V17.4968C60 17.4968 30.2164 0.310624 30 0.267334Z
    "
    fill="white"
  />

  <!-- Unused? -->
  <!-- <path
    d="
      M30 34.9859C29.7836 35.0292 0.0866089 17.54 0.0866089 17.54V54.0768L30
      71.4794L59.9135 54.0768V17.54C59.9135 17.54 30.2165 35.0292 30 34.9859Z
    "
    fill="white"
  /> -->


  <path
    d="
      M30 4.45996C29.8268 4.50325 3.4632 19.6981 3.4632
      19.6981V52.1223L25.7143 65.066V69.2219L30 71.7327L34.2857
      69.2219V65.066L56.5368 52.1223V19.6981C56.5368 19.6981 30.1732 4.50325
      30 4.45996Z
    "
    fill="#222222"
  />

  <!-- Top face of Cube -->
  <path
    d="
      M30 3.95996C29.8238 4.00381 3 19.3942 3 19.3942L30 34.96L56.9999
      19.3942C57.044 19.3942 30.1762 4.00381 30 3.95996Z
    "
    fill="white"
  />

  <!-- Left face inner piece -->
  <path
    d="M25.7143 42.4751L12.0779 34.6829V61.0465L25.7143 68.9686V42.4751Z"
    fill="white"
  />

  <!-- Right face inner piece -->        
  <path
    d="M34.2857 42.4751V68.9686L47.9221 61.0465V34.6829L34.2857 42.4751Z"
    fill="white"
  />
</svg>